<?xml version="1.0" encoding="utf-8"?>
<!-- Generator: Adobe Illustrator 16.0.4, SVG Export Plug-In . SVG Version: 6.00 Build 0)  -->
<!DOCTYPE svg PUBLIC "-//W3C//DTD SVG 1.1//EN" "http://www.w3.org/Graphics/SVG/1.1/DTD/svg11.dtd">
<svg version="1.1" id="Ebene_1" xmlns="http://www.w3.org/2000/svg" xmlns:xlink="http://www.w3.org/1999/xlink" x="0px" y="0px"
	 width="278.969px" height="68.27px" viewBox="0 0 278.969 68.27" enable-background="new 0 0 278.969 68.27" xml:space="preserve">
<g>
	<path d="M16.353,9.779H26.3l3.767,18.432l3.315-18.432h9.215l-6.801,27.536H25.568l-4.214-19.612l-4.325,19.612H6.801L0,9.779h9.33
		l3.201,18.489L16.353,9.779z"/>
	<path d="M54.285,12.869c1.8-2.192,4.495-3.652,8.712-3.652c3.371,0,6.236,1.068,7.921,3.258c1.349,1.743,2.025,4.216,2.025,8.6
		v16.24h-8.598V23.491c0-3.316-0.395-4.946-1.123-5.901c-0.788-1.011-2.026-1.405-3.43-1.405c-3.652,0-5.508,2.079-5.508,7.25
		v13.879h-8.598V0h8.598V12.869z"/>
	<path d="M87.161,0v6.912h-8.598V0H87.161z M87.161,9.779v27.536h-8.598V9.779H87.161z"/>
	<path d="M94.69,1.518h8.598v8.261h6.181v6.687h-6.181v10.902c0,2.642,0.843,3.148,3.711,3.148h2.469v6.799h-5.504
		c-6.857,0-9.274-1.291-9.274-7.867V16.465h-4.439V9.779h4.439V1.518z"/>
	<path d="M112.337,23.377c0-8.71,6.52-14.386,14.893-14.386c9.441,0,15.06,6.126,14.387,16.859H120.99
		c0.17,3.483,3.205,5.227,6.409,5.227c3.201,0,5.167-1.124,6.125-3.371l7.98,1.46c-2.531,6.519-8.262,8.824-14.165,8.824
		C118.07,37.99,112.337,31.808,112.337,23.377z M121.049,20.288h12.024c-0.055-3.429-2.923-5.001-5.955-5.001
		C124.14,15.287,121.104,16.804,121.049,20.288z"/>
	<path d="M163.476,18.489c-1.067-0.168-2.361-0.338-3.596-0.338c-2.644,0-5.116,0.845-5.116,5.452v13.711h-8.598V9.779h8.317v4.665
		c1.519-2.811,3.652-4.833,7.644-5.003c0.447,0,0.898,0,1.349,0.058V18.489z"/>
	<path d="M180.107,9.16c7.754,0,14.722,4.552,14.722,14.443c0,9.89-6.968,14.387-14.722,14.387c-7.812,0-14.668-4.497-14.668-14.387
		C165.439,13.712,172.296,9.16,180.107,9.16z M180.107,31.077c3.427,0,5.958-2.698,5.958-7.474c0-4.833-2.531-7.531-5.958-7.531
		c-3.428,0-5.9,2.698-5.9,7.531C174.207,28.379,176.622,31.077,180.107,31.077z"/>
	<path d="M212.701,9.16c7.756,0,14.724,4.552,14.724,14.443c0,9.89-6.968,14.387-14.724,14.387c-7.811,0-14.667-4.497-14.667-14.387
		C198.034,13.712,204.891,9.16,212.701,9.16z M212.701,31.077c3.427,0,5.958-2.698,5.958-7.474c0-4.833-2.531-7.531-5.958-7.531
		s-5.899,2.698-5.899,7.531C206.802,28.379,209.216,31.077,212.701,31.077z"/>
	<path d="M231.919,9.779h8.432v3.203c1.852-2.247,4.159-3.765,8.483-3.765c4.272,0,6.745,1.46,8.431,4.552
		c2.248-2.922,5.228-4.552,9.611-4.552c3.877,0,6.628,1.236,8.203,3.877c1.012,1.686,1.46,3.933,1.46,7.868v16.353h-8.599V23.435
		c0-3.035-0.222-4.665-0.844-5.676c-0.672-1.068-1.74-1.575-3.481-1.575c-3.651,0-5.06,2.137-5.06,7.138v13.992h-8.653V23.435
		c0-3.035-0.226-4.665-0.843-5.676c-0.673-1.068-1.741-1.575-3.483-1.575c-3.54,0-5.059,2.137-5.059,7.138v13.992h-8.599V9.779z"/>
</g>
<g>
	<path d="M6.935,48.238c2.835,0,5.364,1.312,5.975,4.146l-2.156,0.306c-0.516-1.945-2.319-2.529-3.914-2.529
		c-1.219,0-3.348,0.49-3.348,2.271c0,1.381,1.101,1.991,2.578,2.318l1.826,0.399c2.414,0.538,5.295,1.382,5.295,4.545
		c0,3.093-2.858,4.662-5.998,4.662c-3.727,0-6.069-2.038-6.491-4.989l2.156-0.307c0.422,2.156,1.875,3.375,4.381,3.375
		c2.319,0,3.679-0.983,3.679-2.53c0-1.665-1.428-2.296-3.397-2.718l-1.967-0.422c-2.156-0.469-4.335-1.616-4.335-4.264
		C1.218,49.502,4.381,48.238,6.935,48.238z"/>
	<path d="M16.088,49.433h1.99v3.164h2.202v1.64h-2.202v6.63c0,1.218,0.072,1.521,1.218,1.521h0.983v1.688h-1.428
		c-2.251,0-2.764-0.491-2.764-2.929v-6.91h-1.853v-1.64h1.853V49.433z"/>
	<path d="M28.43,54.657c-0.421-0.047-0.771-0.069-1.101-0.069c-1.826,0-2.741,1.008-2.741,3.583v5.904h-1.989V52.597h1.943v2.036
		c0.585-1.312,1.781-2.061,3.303-2.106c0.186,0,0.375,0,0.584,0.022V54.657z"/>
	<path d="M29.69,56.062c0.141-2.365,2.225-3.679,4.802-3.679c3.256,0,4.593,1.267,4.544,4.358l-0.046,2.905
		c-0.023,1.805,0.095,2.905,0.235,4.428h-1.924l-0.068-1.617c-0.703,1.148-1.826,1.898-3.864,1.898
		c-2.672,0-4.054-1.758-4.054-3.726c0-1.242,0.634-2.084,1.545-2.601c1.101-0.609,2.482-0.843,3.959-1.007l2.228-0.234v-0.422
		c0-1.875-1.127-2.366-2.649-2.366c-1.804,0-2.646,0.867-2.764,2.132L29.69,56.062z M37.188,58.43l-2.391,0.234
		c-2.248,0.211-3.375,0.75-3.375,2.037c0,1.219,0.96,1.922,2.319,1.922c1.617,0,3.447-0.867,3.447-3.515V58.43z"/>
	<path d="M42.571,49.433h1.99v3.164h2.202v1.64h-2.202v6.63c0,1.218,0.072,1.521,1.218,1.521h0.983v1.688h-1.428
		c-2.25,0-2.764-0.491-2.764-2.929v-6.91h-1.852v-1.64h1.852V49.433z"/>
	<path d="M48.307,58.382c0-3.583,2.319-5.974,5.576-5.974c3.606,0,5.667,2.859,5.387,6.56h-8.855c0,2.249,1.453,3.631,3.397,3.631
		c1.829,0,2.741-0.772,3.234-2.014l2.039,0.258c-0.539,1.896-2.342,3.514-5.223,3.514C50.11,64.356,48.307,61.733,48.307,58.382z
		 M50.437,57.305h6.726c-0.049-1.546-1.15-3.209-3.28-3.209C51.891,54.096,50.532,55.289,50.437,57.305z"/>
	<path d="M69.27,62.037c-0.729,1.101-1.712,1.851-3.633,1.851c-2.764,0-4.779-2.108-4.779-5.763c0-3.607,2.084-5.717,5.014-5.717
		c1.663,0,2.764,0.703,3.397,1.688l0.045-1.499h1.943v10.026c0,2.39-0.349,3.373-1.006,4.1c-0.869,0.983-2.319,1.547-4.054,1.547
		c-2.672,0-4.453-1.218-4.825-3.515l2.107-0.07c0.281,1.054,0.915,1.851,2.74,1.851c1.056,0,1.875-0.304,2.392-0.867
		c0.421-0.469,0.657-1.007,0.657-2.601V62.037z M69.361,58.125c0-2.883-1.382-3.983-3.208-3.983c-2.087,0-3.188,1.429-3.188,3.983
		c0,2.576,1.079,4.029,3.188,4.029C67.91,62.154,69.361,61.006,69.361,58.125z"/>
	<path d="M76.381,48.52v2.39h-1.989v-2.39H76.381z M76.381,52.597v11.479h-1.989V52.597H76.381z"/>
	<path d="M78.746,58.382c0-3.583,2.319-5.974,5.577-5.974c3.606,0,5.667,2.859,5.387,6.56h-8.856c0,2.249,1.454,3.631,3.397,3.631
		c1.83,0,2.741-0.772,3.234-2.014l2.039,0.258c-0.539,1.896-2.342,3.514-5.223,3.514C80.549,64.356,78.746,61.733,78.746,58.382z
		 M80.875,57.305h6.726c-0.048-1.546-1.149-3.209-3.279-3.209C82.329,54.096,80.971,55.289,80.875,57.305z"/>
	<path d="M91.46,64.075v-2.507h2.509v2.507H91.46z"/>
	<path d="M106.003,48.52c5.014,0,9.068,1.758,9.068,7.777c0,6.021-4.054,7.778-9.068,7.778h-3.606V48.52H106.003z M105.935,50.487
		h-1.313v11.62h1.313c3.279,0,6.863-0.445,6.863-5.811S109.214,50.487,105.935,50.487z"/>
	<path d="M116.841,58.382c0-3.583,2.319-5.974,5.577-5.974c3.606,0,5.667,2.859,5.387,6.56h-8.856c0,2.249,1.454,3.631,3.397,3.631
		c1.829,0,2.741-0.772,3.233-2.014l2.039,0.258c-0.54,1.896-2.342,3.514-5.224,3.514C118.645,64.356,116.841,61.733,116.841,58.382z
		 M118.971,57.305h6.726c-0.049-1.546-1.149-3.209-3.279-3.209C120.425,54.096,119.066,55.289,118.971,57.305z"/>
	<path d="M136.794,55.898c-0.307-1.336-1.408-1.828-2.858-1.828c-1.242,0-2.46,0.447-2.46,1.407c0,0.89,0.68,1.265,1.898,1.522
		l1.382,0.281c2.156,0.445,4.168,1.218,4.168,3.492c0,2.294-2.084,3.583-4.779,3.583c-3.067,0-4.756-1.921-4.965-3.726l2.084-0.187
		c0.304,1.382,1.195,2.249,2.93,2.249c1.591,0,2.718-0.704,2.718-1.71c0-1.055-1.173-1.569-2.509-1.853l-1.5-0.304
		c-1.663-0.328-3.42-1.054-3.42-3.231c0-2.016,2.202-3.188,4.661-3.188c2.578,0,4.267,1.335,4.711,3.303L136.794,55.898z"/>
	<path d="M143.324,48.52v2.39h-1.989v-2.39H143.324z M143.324,52.597v11.479h-1.989V52.597H143.324z"/>
	<path d="M154.101,62.037c-0.728,1.101-1.711,1.851-3.632,1.851c-2.764,0-4.779-2.108-4.779-5.763c0-3.607,2.084-5.717,5.014-5.717
		c1.663,0,2.764,0.703,3.397,1.688l0.046-1.499h1.944v10.026c0,2.39-0.35,3.373-1.007,4.1c-0.869,0.983-2.319,1.547-4.054,1.547
		c-2.672,0-4.452-1.218-4.825-3.515l2.107-0.07c0.281,1.054,0.915,1.851,2.741,1.851c1.055,0,1.875-0.304,2.391-0.867
		c0.422-0.469,0.656-1.007,0.656-2.601V62.037z M154.192,58.125c0-2.883-1.382-3.983-3.208-3.983c-2.087,0-3.188,1.429-3.188,3.983
		c0,2.576,1.078,4.029,3.188,4.029C152.742,62.154,154.192,61.006,154.192,58.125z"/>
	<path d="M161.213,54.188c0.656-1.007,1.803-1.78,3.772-1.78c1.545,0,2.623,0.585,3.234,1.57c0.443,0.725,0.63,1.688,0.63,3.045
		v7.052h-1.989v-6.513c0-1.217-0.141-1.944-0.424-2.437c-0.422-0.703-1.124-0.984-2.13-0.984c-1.922,0-3.094,1.313-3.094,3.819
		v6.114h-1.99V52.597h1.99V54.188z"/>
	<path d="M171.819,64.075v-2.507h2.509v2.507H171.819z"/>
	<path d="M184.981,56.25l7.12-7.73h2.768l-5.884,6.279l6.562,9.276h-2.672l-5.39-7.66l-2.505,2.693v4.967h-2.226V48.52h2.226V56.25z
		"/>
	<path d="M201.187,52.408c2.809,0,5.409,1.852,5.409,5.974c0,4.124-2.601,5.975-5.409,5.975c-2.812,0-5.413-1.851-5.413-5.975
		C195.773,54.26,198.374,52.408,201.187,52.408z M201.187,62.623c1.871,0,3.303-1.242,3.303-4.241s-1.432-4.24-3.303-4.24
		c-1.875,0-3.306,1.241-3.306,4.24S199.312,62.623,201.187,62.623z"/>
	<path d="M210.946,54.188c0.657-1.007,1.805-1.78,3.774-1.78c1.545,0,2.622,0.585,3.233,1.57c0.444,0.725,0.63,1.688,0.63,3.045
		v7.052h-1.988v-6.513c0-1.217-0.142-1.944-0.425-2.437c-0.421-0.703-1.124-0.984-2.13-0.984c-1.921,0-3.095,1.313-3.095,3.819
		v6.114h-1.988V52.597h1.988V54.188z"/>
	<path d="M220.685,62.436l6.772-8.199h-6.325v-1.64h8.645v1.64l-6.771,8.199h6.889v1.64h-9.209V62.436z"/>
	<path d="M231.387,58.382c0-3.583,2.319-5.974,5.577-5.974c3.605,0,5.667,2.859,5.386,6.56h-8.855c0,2.249,1.453,3.631,3.396,3.631
		c1.829,0,2.741-0.772,3.234-2.014l2.038,0.258c-0.539,1.896-2.342,3.514-5.223,3.514C233.189,64.356,231.387,61.733,231.387,58.382
		z M233.516,57.305h6.728c-0.049-1.546-1.15-3.209-3.279-3.209C234.971,54.096,233.611,55.289,233.516,57.305z"/>
	<path d="M246.584,68.127h-1.99v-15.53h1.943l0.047,1.663c0.725-1.102,1.803-1.852,3.723-1.852c2.768,0,4.783,2.249,4.783,5.998
		c0,3.701-2.088,5.95-5.015,5.95c-1.663,0-2.857-0.702-3.491-1.688V68.127z M246.488,58.406c0,2.975,1.477,4.217,3.307,4.217
		c2.083,0,3.184-1.569,3.184-4.217c0-2.671-1.077-4.265-3.184-4.265C248.036,54.142,246.488,55.43,246.488,58.406z"/>
	<path d="M258.01,49.433H260v3.164h2.201v1.64H260v6.63c0,1.218,0.071,1.521,1.218,1.521h0.983v1.688h-1.428
		c-2.251,0-2.764-0.491-2.764-2.929v-6.91h-1.853v-1.64h1.853V49.433z"/>
	<path d="M263.746,58.382c0-3.583,2.319-5.974,5.576-5.974c3.607,0,5.667,2.859,5.387,6.56h-8.856c0,2.249,1.454,3.631,3.397,3.631
		c1.83,0,2.74-0.772,3.234-2.014l2.038,0.258c-0.539,1.896-2.342,3.514-5.223,3.514C265.549,64.356,263.746,61.733,263.746,58.382z
		 M265.876,57.305h6.727c-0.05-1.546-1.15-3.209-3.28-3.209C267.33,54.096,265.971,55.289,265.876,57.305z"/>
	<path d="M276.46,64.075v-2.507h2.509v2.507H276.46z"/>
</g>
</svg>
