<?xml version="1.0" encoding="utf-8"?>
<!-- Generator: Adobe Illustrator 16.0.4, SVG Export Plug-In . SVG Version: 6.00 Build 0)  -->
<!DOCTYPE svg PUBLIC "-//W3C//DTD SVG 1.1//EN" "http://www.w3.org/Graphics/SVG/1.1/DTD/svg11.dtd">
<svg version="1.1" id="Ebene_1" xmlns="http://www.w3.org/2000/svg" xmlns:xlink="http://www.w3.org/1999/xlink" x="0px" y="0px"
	 width="83.397px" height="20.409px" viewBox="0 0 83.397 20.409" enable-background="new 0 0 83.397 20.409" xml:space="preserve">
<g>
	<path fill="#FFFFFF" d="M4.889,2.923h2.974l1.126,5.51l0.991-5.51h2.755l-2.033,8.232H7.644l-1.26-5.863l-1.293,5.863H2.033
		L0,2.923h2.789l0.957,5.527L4.889,2.923z"/>
	<path fill="#FFFFFF" d="M16.229,3.847c0.538-0.655,1.344-1.092,2.604-1.092c1.008,0,1.864,0.319,2.368,0.974
		c0.403,0.521,0.605,1.26,0.605,2.571v4.855h-2.57V7.022c0-0.991-0.118-1.479-0.336-1.764c-0.235-0.302-0.605-0.42-1.025-0.42
		c-1.092,0-1.646,0.622-1.646,2.167v4.149h-2.57V0h2.57V3.847z"/>
	<path fill="#FFFFFF" d="M26.057,0v2.066h-2.57V0H26.057z M26.057,2.923v8.232h-2.57V2.923H26.057z"/>
	<path fill="#FFFFFF" d="M28.308,0.454h2.57v2.47h1.848v1.999h-1.848v3.259c0,0.79,0.252,0.941,1.109,0.941h0.738v2.033H31.08
		c-2.05,0-2.772-0.386-2.772-2.352V4.922H26.98V2.923h1.327V0.454z"/>
	<path fill="#FFFFFF" d="M33.583,6.989c0-2.604,1.949-4.301,4.452-4.301c2.822,0,4.502,1.832,4.301,5.04H36.17
		c0.051,1.042,0.958,1.562,1.916,1.562c0.957,0,1.545-0.336,1.831-1.008l2.386,0.437c-0.757,1.949-2.47,2.638-4.234,2.638
		C35.297,11.357,33.583,9.509,33.583,6.989z M36.188,6.065h3.595c-0.017-1.025-0.874-1.495-1.78-1.495
		C37.111,4.57,36.204,5.023,36.188,6.065z"/>
	<path fill="#FFFFFF" d="M48.871,5.527c-0.319-0.05-0.706-0.101-1.075-0.101c-0.79,0-1.529,0.252-1.529,1.63v4.099h-2.57V2.923
		h2.486v1.395c0.454-0.84,1.092-1.445,2.285-1.496c0.134,0,0.269,0,0.403,0.017V5.527z"/>
	<path fill="#FFFFFF" d="M53.843,2.738c2.318,0,4.401,1.361,4.401,4.318c0,2.957-2.083,4.301-4.401,4.301
		c-2.335,0-4.385-1.344-4.385-4.301C49.458,4.099,51.508,2.738,53.843,2.738z M53.843,9.291c1.024,0,1.781-0.807,1.781-2.234
		c0-1.445-0.757-2.251-1.781-2.251s-1.764,0.807-1.764,2.251C52.079,8.484,52.801,9.291,53.843,9.291z"/>
	<path fill="#FFFFFF" d="M63.587,2.738c2.318,0,4.401,1.361,4.401,4.318c0,2.957-2.083,4.301-4.401,4.301
		c-2.335,0-4.385-1.344-4.385-4.301C59.202,4.099,61.252,2.738,63.587,2.738z M63.587,9.291c1.024,0,1.781-0.807,1.781-2.234
		c0-1.445-0.757-2.251-1.781-2.251s-1.764,0.807-1.764,2.251C61.823,8.484,62.545,9.291,63.587,9.291z"/>
	<path fill="#FFFFFF" d="M69.332,2.923h2.521v0.958c0.554-0.672,1.243-1.125,2.536-1.125c1.277,0,2.017,0.437,2.521,1.361
		c0.672-0.874,1.562-1.361,2.873-1.361c1.159,0,1.981,0.37,2.452,1.159c0.303,0.504,0.437,1.176,0.437,2.352v4.889h-2.57V7.006
		c0-0.907-0.066-1.395-0.252-1.697c-0.201-0.319-0.521-0.471-1.041-0.471c-1.092,0-1.513,0.639-1.513,2.134v4.183h-2.587V7.006
		c0-0.907-0.067-1.395-0.252-1.697c-0.201-0.319-0.521-0.471-1.041-0.471c-1.059,0-1.513,0.639-1.513,2.134v4.183h-2.57V2.923z"/>
</g>
<g>
	<path fill="#FFFFFF" d="M2.073,14.421c0.848,0,1.604,0.392,1.786,1.239l-0.645,0.091c-0.154-0.582-0.693-0.756-1.17-0.756
		c-0.364,0-1.001,0.147-1.001,0.679c0,0.413,0.329,0.595,0.771,0.693l0.546,0.119c0.722,0.161,1.583,0.413,1.583,1.359
		c0,0.924-0.854,1.394-1.793,1.394c-1.114,0-1.814-0.609-1.94-1.492l0.645-0.091c0.126,0.645,0.561,1.009,1.31,1.009
		c0.693,0,1.1-0.294,1.1-0.756c0-0.498-0.427-0.687-1.016-0.812L1.66,16.97c-0.645-0.14-1.296-0.483-1.296-1.275
		C0.364,14.799,1.31,14.421,2.073,14.421z"/>
	<path fill="#FFFFFF" d="M4.81,14.778h0.595v0.946h0.658v0.49H5.404v1.982c0,0.364,0.021,0.455,0.364,0.455h0.294v0.504H5.636
		c-0.673,0-0.826-0.147-0.826-0.875v-2.066H4.256v-0.49H4.81V14.778z"/>
	<path fill="#FFFFFF" d="M8.499,16.34c-0.126-0.014-0.23-0.021-0.329-0.021c-0.546,0-0.819,0.301-0.819,1.071v1.765H6.756v-3.432
		h0.581v0.609c0.175-0.392,0.532-0.616,0.987-0.63c0.056,0,0.112,0,0.175,0.007V16.34z"/>
	<path fill="#FFFFFF" d="M8.876,16.76c0.042-0.707,0.665-1.1,1.436-1.1c0.974,0,1.373,0.378,1.358,1.303l-0.014,0.869
		c-0.007,0.54,0.028,0.869,0.07,1.324h-0.575l-0.021-0.483c-0.21,0.343-0.546,0.567-1.155,0.567c-0.799,0-1.212-0.525-1.212-1.114
		c0-0.371,0.189-0.623,0.462-0.777c0.329-0.182,0.742-0.252,1.184-0.301l0.666-0.07v-0.126c0-0.561-0.337-0.708-0.792-0.708
		c-0.539,0-0.791,0.259-0.826,0.637L8.876,16.76z M11.117,17.467l-0.715,0.07c-0.672,0.063-1.009,0.224-1.009,0.609
		c0,0.364,0.287,0.575,0.693,0.575c0.483,0,1.03-0.259,1.03-1.051V17.467z"/>
	<path fill="#FFFFFF" d="M12.727,14.778h0.595v0.946h0.658v0.49h-0.658v1.982c0,0.364,0.021,0.455,0.364,0.455h0.294v0.504h-0.427
		c-0.673,0-0.826-0.147-0.826-0.875v-2.066h-0.554v-0.49h0.554V14.778z"/>
	<path fill="#FFFFFF" d="M14.441,17.453c0-1.071,0.693-1.786,1.667-1.786c1.078,0,1.694,0.854,1.61,1.961h-2.647
		c0,0.672,0.435,1.085,1.016,1.085c0.547,0,0.819-0.231,0.967-0.602l0.609,0.077c-0.161,0.567-0.7,1.05-1.562,1.05
		C14.98,19.239,14.441,18.455,14.441,17.453z M15.078,17.131h2.011c-0.015-0.462-0.344-0.959-0.98-0.959
		C15.513,16.172,15.106,16.529,15.078,17.131z"/>
	<path fill="#FFFFFF" d="M20.708,18.546c-0.218,0.329-0.512,0.553-1.086,0.553c-0.826,0-1.429-0.63-1.429-1.723
		c0-1.079,0.623-1.709,1.499-1.709c0.497,0,0.826,0.21,1.016,0.504l0.014-0.448h0.581v2.998c0,0.714-0.104,1.008-0.301,1.226
		c-0.26,0.294-0.693,0.462-1.212,0.462c-0.799,0-1.331-0.364-1.442-1.051l0.63-0.021c0.084,0.315,0.273,0.553,0.819,0.553
		c0.315,0,0.561-0.091,0.715-0.259c0.126-0.14,0.196-0.301,0.196-0.777V18.546z M20.735,17.376c0-0.862-0.413-1.191-0.959-1.191
		c-0.624,0-0.953,0.427-0.953,1.191c0,0.77,0.322,1.205,0.953,1.205C20.302,18.581,20.735,18.238,20.735,17.376z"/>
	<path fill="#FFFFFF" d="M22.834,14.505v0.714h-0.595v-0.714H22.834z M22.834,15.724v3.432h-0.595v-3.432H22.834z"/>
	<path fill="#FFFFFF" d="M23.541,17.453c0-1.071,0.693-1.786,1.667-1.786c1.078,0,1.694,0.854,1.61,1.961h-2.647
		c0,0.672,0.435,1.085,1.016,1.085c0.547,0,0.819-0.231,0.967-0.602l0.609,0.077c-0.161,0.567-0.7,1.05-1.562,1.05
		C24.08,19.239,23.541,18.455,23.541,17.453z M24.178,17.131h2.011c-0.015-0.462-0.344-0.959-0.98-0.959
		C24.612,16.172,24.206,16.529,24.178,17.131z"/>
	<path fill="#FFFFFF" d="M27.342,19.155v-0.75h0.75v0.75H27.342z"/>
	<path fill="#FFFFFF" d="M31.689,14.505c1.499,0,2.711,0.525,2.711,2.325s-1.212,2.325-2.711,2.325h-1.078v-4.65H31.689z
		 M31.669,15.093h-0.393v3.474h0.393c0.98,0,2.052-0.133,2.052-1.737S32.649,15.093,31.669,15.093z"/>
	<path fill="#FFFFFF" d="M34.93,17.453c0-1.071,0.693-1.786,1.667-1.786c1.078,0,1.694,0.854,1.61,1.961H35.56
		c0,0.672,0.435,1.085,1.016,1.085c0.547,0,0.819-0.231,0.967-0.602l0.609,0.077c-0.161,0.567-0.7,1.05-1.562,1.05
		C35.469,19.239,34.93,18.455,34.93,17.453z M35.566,17.131h2.011c-0.015-0.462-0.344-0.959-0.98-0.959
		C36.001,16.172,35.595,16.529,35.566,17.131z"/>
	<path fill="#FFFFFF" d="M40.895,16.711c-0.092-0.399-0.421-0.546-0.854-0.546c-0.371,0-0.735,0.133-0.735,0.42
		c0,0.266,0.203,0.378,0.567,0.455l0.413,0.084c0.645,0.133,1.246,0.364,1.246,1.044c0,0.686-0.623,1.071-1.429,1.071
		c-0.917,0-1.422-0.574-1.484-1.114l0.623-0.056c0.091,0.413,0.357,0.672,0.876,0.672c0.476,0,0.812-0.21,0.812-0.511
		c0-0.315-0.351-0.469-0.75-0.554l-0.448-0.091c-0.497-0.098-1.022-0.315-1.022-0.966c0-0.603,0.658-0.953,1.394-0.953
		c0.771,0,1.275,0.399,1.408,0.987L40.895,16.711z"/>
	<path fill="#FFFFFF" d="M42.847,14.505v0.714h-0.595v-0.714H42.847z M42.847,15.724v3.432h-0.595v-3.432H42.847z"/>
	<path fill="#FFFFFF" d="M46.068,18.546c-0.218,0.329-0.512,0.553-1.086,0.553c-0.826,0-1.429-0.63-1.429-1.723
		c0-1.079,0.623-1.709,1.499-1.709c0.497,0,0.826,0.21,1.016,0.504l0.014-0.448h0.581v2.998c0,0.714-0.104,1.008-0.301,1.226
		c-0.26,0.294-0.693,0.462-1.212,0.462c-0.799,0-1.331-0.364-1.442-1.051l0.63-0.021c0.084,0.315,0.273,0.553,0.819,0.553
		c0.315,0,0.561-0.091,0.715-0.259c0.126-0.14,0.196-0.301,0.196-0.777V18.546z M46.096,17.376c0-0.862-0.413-1.191-0.959-1.191
		c-0.624,0-0.953,0.427-0.953,1.191c0,0.77,0.322,1.205,0.953,1.205C45.662,18.581,46.096,18.238,46.096,17.376z"/>
	<path fill="#FFFFFF" d="M48.194,16.2c0.196-0.301,0.539-0.532,1.128-0.532c0.462,0,0.784,0.175,0.967,0.469
		c0.133,0.217,0.188,0.504,0.188,0.911v2.108h-0.595v-1.947c0-0.364-0.042-0.581-0.127-0.728c-0.126-0.21-0.336-0.294-0.637-0.294
		c-0.574,0-0.925,0.393-0.925,1.142v1.828H47.6v-3.432h0.595V16.2z"/>
	<path fill="#FFFFFF" d="M51.365,19.155v-0.75h0.75v0.75H51.365z"/>
	<path fill="#FFFFFF" d="M55.3,16.816l2.129-2.311h0.827l-1.759,1.877l1.962,2.773H57.66l-1.611-2.29L55.3,17.67v1.485h-0.665v-4.65
		H55.3V16.816z"/>
	<path fill="#FFFFFF" d="M60.145,15.667c0.84,0,1.617,0.553,1.617,1.786c0,1.233-0.777,1.786-1.617,1.786
		c-0.841,0-1.618-0.553-1.618-1.786C58.526,16.221,59.304,15.667,60.145,15.667z M60.145,18.721c0.56,0,0.987-0.372,0.987-1.268
		s-0.428-1.268-0.987-1.268c-0.561,0-0.988,0.371-0.988,1.268S59.584,18.721,60.145,18.721z"/>
	<path fill="#FFFFFF" d="M63.062,16.2c0.196-0.301,0.539-0.532,1.128-0.532c0.462,0,0.784,0.175,0.967,0.469
		c0.133,0.217,0.188,0.504,0.188,0.911v2.108h-0.595v-1.947c0-0.364-0.042-0.581-0.127-0.728c-0.126-0.21-0.336-0.294-0.637-0.294
		c-0.574,0-0.925,0.393-0.925,1.142v1.828h-0.595v-3.432h0.595V16.2z"/>
	<path fill="#FFFFFF" d="M65.974,18.665l2.024-2.451h-1.891v-0.49h2.584v0.49l-2.024,2.451h2.06v0.49h-2.753V18.665z"/>
	<path fill="#FFFFFF" d="M69.173,17.453c0-1.071,0.693-1.786,1.667-1.786c1.078,0,1.694,0.854,1.61,1.961h-2.647
		c0,0.672,0.435,1.085,1.016,1.085c0.547,0,0.819-0.231,0.967-0.602l0.609,0.077c-0.161,0.567-0.7,1.05-1.562,1.05
		C69.712,19.239,69.173,18.455,69.173,17.453z M69.81,17.131h2.011c-0.015-0.462-0.344-0.959-0.98-0.959
		C70.244,16.172,69.838,16.529,69.81,17.131z"/>
	<path fill="#FFFFFF" d="M73.716,20.367h-0.595v-4.643h0.581l0.014,0.497c0.217-0.329,0.539-0.553,1.113-0.553
		c0.827,0,1.43,0.672,1.43,1.793c0,1.106-0.624,1.779-1.499,1.779c-0.497,0-0.854-0.21-1.044-0.504V20.367z M73.688,17.46
		c0,0.889,0.441,1.261,0.988,1.261c0.623,0,0.952-0.469,0.952-1.261c0-0.798-0.322-1.275-0.952-1.275
		C74.15,16.186,73.688,16.571,73.688,17.46z"/>
	<path fill="#FFFFFF" d="M77.132,14.778h0.595v0.946h0.658v0.49h-0.658v1.982c0,0.364,0.021,0.455,0.364,0.455h0.294v0.504h-0.427
		c-0.673,0-0.826-0.147-0.826-0.875v-2.066h-0.554v-0.49h0.554V14.778z"/>
	<path fill="#FFFFFF" d="M78.847,17.453c0-1.071,0.693-1.786,1.667-1.786c1.078,0,1.694,0.854,1.61,1.961h-2.647
		c0,0.672,0.435,1.085,1.016,1.085c0.547,0,0.819-0.231,0.967-0.602l0.609,0.077c-0.161,0.567-0.7,1.05-1.562,1.05
		C79.386,19.239,78.847,18.455,78.847,17.453z M79.483,17.131h2.011c-0.015-0.462-0.344-0.959-0.98-0.959
		C79.918,16.172,79.512,16.529,79.483,17.131z"/>
	<path fill="#FFFFFF" d="M82.647,19.155v-0.75h0.75v0.75H82.647z"/>
</g>
</svg>
