<?xml version="1.0" encoding="utf-8"?>
<!-- Generator: Adobe Illustrator 19.2.1, SVG Export Plug-In . SVG Version: 6.00 Build 0)  -->
<svg version="1.1" xmlns="http://www.w3.org/2000/svg" xmlns:xlink="http://www.w3.org/1999/xlink" x="0px" y="0px"
	 viewBox="17.5 33.5 22 30" enable-background="new 17.5 33.5 22 30" xml:space="preserve">
<g id="Hilfslinien">
</g>
<g id="Ebene_2">
</g>
<g id="Ebene_3">
</g>
<g id="Ebene_4">
</g>
<g id="Ebene_5">
</g>
<g id="Ebene_6">
	<g>
		<path fill="#EC732C" d="M39.5,41.037V63.5h-22v-30h14.632L39.5,41.037z"/>
		<path opacity="0.2" enable-background="new    " d="M39.011,63H17.989V34h14.143v-0.5H17.5v30h22V41.037h-0.489"/>
		<path opacity="0.3" fill="#FFFFFF" enable-background="new    " d="M39.5,41.037h-7.368V33.5L39.5,41.037z"/>
		<path opacity="0.3" enable-background="new    " d="M39.5,48.572l-7.368-7.535H39.5V48.572z"/>
		<g>
			<path fill="#FFFFFF" d="M22.497,47.215h0.493l0.187,0.933l0.164-0.933h0.456l-0.336,1.394h-0.506l-0.209-0.993l-0.214,0.993
				h-0.506l-0.337-1.394h0.462l0.159,0.936L22.497,47.215z"/>
			<path fill="#FFFFFF" d="M24.375,47.372c0.089-0.111,0.223-0.185,0.431-0.185c0.167,0,0.308,0.054,0.392,0.165
				c0.067,0.088,0.1,0.213,0.1,0.435v0.822h-0.426v-0.7c0-0.168-0.019-0.25-0.056-0.299c-0.039-0.051-0.1-0.071-0.17-0.071
				c-0.181,0-0.272,0.105-0.272,0.367v0.703h-0.426v-1.889h0.426V47.372z"/>
			<path fill="#FFFFFF" d="M26.002,46.721v0.35h-0.425v-0.35H26.002z M26.002,47.215v1.394h-0.425v-1.394H26.002z"/>
			<path fill="#FFFFFF" d="M26.375,46.797H26.8v0.418h0.306v0.338H26.8v0.551c0,0.135,0.042,0.16,0.184,0.16h0.122v0.344h-0.273
				c-0.339,0-0.459-0.066-0.459-0.399v-0.657h-0.22v-0.339h0.22L26.375,46.797L26.375,46.797z"/>
			<path fill="#FFFFFF" d="M27.248,47.904c0-0.441,0.323-0.728,0.737-0.728c0.467,0,0.746,0.311,0.712,0.853h-1.021
				c0.009,0.177,0.159,0.265,0.317,0.265c0.158,0,0.256-0.057,0.303-0.171l0.395,0.074c-0.126,0.33-0.409,0.446-0.701,0.446
				C27.532,48.644,27.248,48.331,27.248,47.904z M27.68,47.747h0.595c-0.003-0.173-0.145-0.252-0.295-0.252
				C27.832,47.495,27.682,47.571,27.68,47.747z"/>
			<path fill="#FFFFFF" d="M29.779,47.657c-0.052-0.009-0.116-0.018-0.178-0.018c-0.131,0-0.253,0.043-0.253,0.276v0.694h-0.425
				v-1.394h0.411v0.236c0.075-0.142,0.181-0.245,0.379-0.253c0.022,0,0.045,0,0.066,0.003V47.657z"/>
			<path fill="#FFFFFF" d="M30.603,47.184c0.384,0,0.729,0.231,0.729,0.731s-0.345,0.728-0.729,0.728
				c-0.386,0-0.726-0.228-0.726-0.728S30.216,47.184,30.603,47.184z M30.603,48.294c0.17,0,0.295-0.136,0.295-0.378
				c0-0.245-0.125-0.381-0.295-0.381c-0.17,0-0.291,0.137-0.291,0.381C30.311,48.158,30.431,48.294,30.603,48.294z"/>
			<path fill="#FFFFFF" d="M32.217,47.184c0.383,0,0.728,0.231,0.728,0.731s-0.345,0.728-0.728,0.728
				c-0.387,0-0.726-0.228-0.726-0.728S31.83,47.184,32.217,47.184z M32.217,48.294c0.169,0,0.295-0.136,0.295-0.378
				c0-0.245-0.126-0.381-0.295-0.381c-0.17,0-0.292,0.137-0.292,0.381C31.925,48.158,32.044,48.294,32.217,48.294z"/>
			<path fill="#FFFFFF" d="M33.168,47.215h0.417v0.163c0.092-0.114,0.206-0.19,0.42-0.19c0.212,0,0.334,0.073,0.417,0.23
				c0.111-0.147,0.258-0.23,0.476-0.23c0.192,0,0.328,0.062,0.405,0.196c0.051,0.085,0.072,0.199,0.072,0.399v0.828h-0.425v-0.703
				c0-0.153-0.011-0.236-0.042-0.287c-0.033-0.054-0.087-0.08-0.173-0.08c-0.181,0-0.25,0.108-0.25,0.362v0.708h-0.428v-0.703
				c0-0.153-0.011-0.236-0.042-0.287c-0.033-0.054-0.086-0.08-0.172-0.08c-0.176,0-0.251,0.108-0.251,0.362v0.708h-0.425V47.215
				L33.168,47.215z"/>
		</g>
		<g>
			<path fill="#FFFFFF" d="M22.774,41.252v-2.657h-0.897v-0.671c0.657-0.018,0.944-0.21,1.114-0.654h0.68v3.982H22.774z"/>
		</g>
		<g>
			<rect x="23.468" y="55" fill="#FFFFFF" width="3.627" height="0.4"/>
			<rect x="23.468" y="55.8" fill="#FFFFFF" width="3.627" height="0.4"/>
			<rect x="23.468" y="56.6" fill="#FFFFFF" width="3.627" height="0.4"/>
			<rect x="23.468" y="57.35" fill="#FFFFFF" width="2.681" height="0.4"/>
			<rect x="27.396" y="55" fill="#FFFFFF" width="6.14" height="2.75"/>
		</g>
		<g>
			<rect x="29.908" y="51.75" fill="#FFFFFF" width="3.628" height="0.4"/>
			<rect x="29.908" y="52.55" fill="#FFFFFF" width="3.628" height="0.4"/>
			<rect x="29.908" y="53.35" fill="#FFFFFF" width="3.628" height="0.4"/>
			<rect x="29.908" y="54.1" fill="#FFFFFF" width="2.68" height="0.4"/>
			<rect x="23.468" y="51.75" fill="#FFFFFF" width="6.14" height="2.75"/>
		</g>
		<path fill="#FFFFFF" d="M35.182,49.583H21.818V60.5h13.363v-9.208V49.583z M34.367,58.979L22.633,59v-8.562h11.734V58.979z"/>
	</g>
</g>
</svg>
