<?xml version="1.0" encoding="utf-8"?>
<!-- Generator: Adobe Illustrator 19.2.1, SVG Export Plug-In . SVG Version: 6.00 Build 0)  -->
<svg version="1.1" xmlns="http://www.w3.org/2000/svg" xmlns:xlink="http://www.w3.org/1999/xlink" x="0px" y="0px"
	 viewBox="14.51 34.583 22 30" enable-background="new 14.51 34.583 22 30" xml:space="preserve">
<g id="Hilfslinien">
</g>
<g id="Ebene_2">
</g>
<g id="Ebene_3">
</g>
<g id="Ebene_4">
</g>
<g id="Ebene_5">
</g>
<g id="Ebene_6">
	<g>
		<path fill="#EC732C" d="M36.51,42.121v22.463h-22v-30h14.632L36.51,42.121z"/>
		<rect x="20.478" y="53.988" fill="#FFFFFF" width="3.911" height="0.4"/>
		<rect x="20.478" y="54.788" fill="#FFFFFF" width="3.911" height="0.4"/>
		<rect x="20.478" y="55.588" fill="#FFFFFF" width="3.163" height="0.399"/>
		<rect x="20.478" y="52.409" fill="#FFFFFF" width="10.067" height="1"/>
		<rect x="25.168" y="53.988" fill="#FFFFFF" width="5.378" height="0.4"/>
		<rect x="25.168" y="54.788" fill="#FFFFFF" width="5.378" height="0.4"/>
		<rect x="25.168" y="55.588" fill="#FFFFFF" width="5.378" height="0.399"/>
		<rect x="25.168" y="56.388" fill="#FFFFFF" width="5.378" height="0.4"/>
		<rect x="25.168" y="57.188" fill="#FFFFFF" width="5.378" height="0.4"/>
		<rect x="25.168" y="57.988" fill="#FFFFFF" width="3.974" height="0.4"/>
		<rect x="20.478" y="56.861" fill="#FFFFFF" width="3.911" height="2.077"/>
		<path opacity="0.2" enable-background="new    " d="M36.021,64.083H14.999v-29h14.143v-0.5H14.51v30h22V42.121h-0.489"/>
		<path opacity="0.3" fill="#FFFFFF" enable-background="new    " d="M36.51,42.121h-7.368v-7.537L36.51,42.121z"/>
		<path opacity="0.3" enable-background="new    " d="M36.51,49.656l-7.368-7.535h7.368V49.656z"/>
		<path fill="#FFFFFF" d="M32.192,50.667H18.829v10.917h13.363v-9.208V50.667z M31.377,60.063l-11.734,0.021v-8.562h11.734V60.063z"
			/>
		<g>
			<path fill="#FFFFFF" d="M19.507,48.299H20l0.187,0.933l0.164-0.933h0.456l-0.336,1.394h-0.507L19.755,48.7l-0.214,0.993h-0.506
				l-0.337-1.394h0.462l0.159,0.936L19.507,48.299z"/>
			<path fill="#FFFFFF" d="M21.385,48.456c0.089-0.111,0.223-0.185,0.431-0.185c0.167,0,0.308,0.054,0.392,0.165
				c0.067,0.088,0.1,0.213,0.1,0.435v0.822h-0.426v-0.7c0-0.168-0.019-0.25-0.056-0.299c-0.039-0.051-0.1-0.071-0.17-0.071
				c-0.181,0-0.272,0.105-0.272,0.367v0.703H20.96v-1.889h0.426V48.456z"/>
			<path fill="#FFFFFF" d="M23.012,47.804v0.35h-0.425v-0.35H23.012z M23.012,48.299v1.394h-0.425v-1.394H23.012z"/>
			<path fill="#FFFFFF" d="M23.385,47.881h0.425v0.418h0.306v0.338h-0.306v0.551c0,0.135,0.042,0.16,0.184,0.16h0.122v0.344h-0.273
				c-0.339,0-0.459-0.066-0.459-0.399v-0.657h-0.22v-0.339h0.22L23.385,47.881L23.385,47.881z"/>
			<path fill="#FFFFFF" d="M24.259,48.987c0-0.441,0.323-0.728,0.737-0.728c0.467,0,0.746,0.311,0.712,0.853h-1.021
				c0.009,0.177,0.159,0.265,0.317,0.265c0.158,0,0.256-0.057,0.303-0.171l0.395,0.074c-0.126,0.33-0.409,0.446-0.701,0.446
				C24.542,49.727,24.259,49.414,24.259,48.987z M24.69,48.831h0.595c-0.003-0.173-0.145-0.252-0.295-0.252
				C24.843,48.578,24.693,48.655,24.69,48.831z"/>
			<path fill="#FFFFFF" d="M26.79,48.74c-0.052-0.009-0.116-0.018-0.178-0.018c-0.131,0-0.253,0.043-0.253,0.277v0.694h-0.426
				v-1.394h0.412v0.236c0.075-0.142,0.181-0.245,0.379-0.253c0.022,0,0.044,0,0.066,0.003V48.74z"/>
			<path fill="#FFFFFF" d="M27.613,48.268c0.384,0,0.729,0.231,0.729,0.731c0,0.5-0.345,0.728-0.729,0.728
				c-0.386,0-0.726-0.228-0.726-0.728C26.887,48.499,27.227,48.268,27.613,48.268z M27.613,49.377c0.17,0,0.295-0.136,0.295-0.378
				c0-0.245-0.126-0.381-0.295-0.381c-0.17,0-0.291,0.137-0.291,0.381C27.322,49.241,27.441,49.377,27.613,49.377z"/>
			<path fill="#FFFFFF" d="M29.227,48.268c0.383,0,0.728,0.231,0.728,0.731c0,0.5-0.345,0.728-0.728,0.728
				c-0.387,0-0.726-0.228-0.726-0.728C28.501,48.499,28.84,48.268,29.227,48.268z M29.227,49.377c0.169,0,0.295-0.136,0.295-0.378
				c0-0.245-0.126-0.381-0.295-0.381c-0.17,0-0.292,0.137-0.292,0.381C28.935,49.241,29.054,49.377,29.227,49.377z"/>
			<path fill="#FFFFFF" d="M30.178,48.299h0.417v0.163c0.092-0.114,0.206-0.19,0.42-0.19c0.212,0,0.334,0.073,0.417,0.23
				c0.111-0.147,0.258-0.23,0.476-0.23c0.191,0,0.328,0.062,0.405,0.196c0.051,0.085,0.073,0.199,0.073,0.399v0.828h-0.425V48.99
				c0-0.153-0.011-0.236-0.042-0.287c-0.034-0.054-0.087-0.08-0.173-0.08c-0.18,0-0.25,0.108-0.25,0.362v0.708h-0.428V48.99
				c0-0.153-0.012-0.236-0.042-0.287c-0.033-0.054-0.086-0.08-0.172-0.08c-0.176,0-0.251,0.108-0.251,0.362v0.708h-0.425V48.299
				L30.178,48.299z"/>
		</g>
		<g>
			<path fill="#FFFFFF" d="M21.972,39.428c0,0.768-0.657,1.415-1.718,2.099h1.736v0.81h-3.037V41.55
				c1.061-0.792,2.117-1.403,2.117-2.021c0-0.342-0.27-0.503-0.563-0.503c-0.305,0-0.645,0.192-0.622,0.786l-0.891-0.012
				c-0.029-0.941,0.633-1.511,1.548-1.511C21.368,38.288,21.972,38.708,21.972,39.428z"/>
		</g>
	</g>
</g>
</svg>
